<?xml version="1.0" standalone="no"?><!DOCTYPE svg PUBLIC "-//W3C//DTD SVG 1.1//EN" "http://www.w3.org/Graphics/SVG/1.1/DTD/svg11.dtd"><svg t="1750650664388" class="icon" viewBox="0 0 1024 1024" version="1.1" xmlns="http://www.w3.org/2000/svg" p-id="8263" xmlns:xlink="http://www.w3.org/1999/xlink" width="220" height="220" fill="currentColor"><path d="M700.714667 231.466667a21.333333 21.333333 0 0 1 2.474666 27.221333l-2.474666 2.986667-74.24 74.197333H725.333333a106.666667 106.666667 0 0 1 106.453334 99.669333l0.213333 6.997334v236.8a106.666667 106.666667 0 0 1-106.666667 106.666666H298.666667a106.666667 106.666667 0 0 1-106.666667-106.666666v-236.8a106.666667 106.666667 0 0 1 106.666667-106.666667h93.824L320.469333 263.808a21.333333 21.333333 0 0 1 27.221334-32.64l2.944 2.474667 102.186666 102.229333h115.242667a21.162667 21.162667 0 0 1 1.877333-3.285333l2.474667-2.986667 98.133333-98.133333a21.333333 21.333333 0 0 1 30.165334 0zM725.333333 378.538667l-278.186666 0.085333a21.461333 21.461333 0 0 1-5.717334 0L298.666667 378.538667a64 64 0 0 0-64 64v236.8a64 64 0 0 0 64 64h426.666666a64 64 0 0 0 64-64v-236.8a64 64 0 0 0-64-64z m-338.773333 133.674666a21.333333 21.333333 0 0 1 20.949333 17.493334l0.341334 3.84v64a21.333333 21.333333 0 0 1-42.282667 3.84l-0.384-3.84v-64a21.333333 21.333333 0 0 1 21.333333-21.333334z" p-id="8264"></path><path d="M658.688 512.213333a21.333333 21.333333 0 0 1 20.992 17.493334l0.341333 3.84v64a21.333333 21.333333 0 0 1-42.325333 3.84l-0.341333-3.84v-64a21.333333 21.333333 0 0 1 21.333333-21.333334z" p-id="8265"></path></svg>