<?xml version="1.0" standalone="no"?><!DOCTYPE svg PUBLIC "-//W3C//DTD SVG 1.1//EN" "http://www.w3.org/Graphics/SVG/1.1/DTD/svg11.dtd"><svg t="1750673622263" class="icon" viewBox="0 0 1024 1024" version="1.1" xmlns="http://www.w3.org/2000/svg" p-id="9917" xmlns:xlink="http://www.w3.org/1999/xlink" width="200" height="200"><path d="M306.048 117.632L444.352 256h135.296l138.432-138.368a42.688 42.688 0 1 1 60.288 60.352L700.352 256h89.024a149.312 149.312 0 0 1 149.312 149.312v341.376A149.312 149.312 0 0 1 789.376 896H234.688a149.312 149.312 0 0 1-149.312-149.312V405.312A149.312 149.312 0 0 1 234.688 256h88.96L245.76 177.92a42.688 42.688 0 0 1 60.352-60.352z m483.328 223.68H234.688a64 64 0 0 0-63.68 57.856l-0.32 6.144v341.376a64 64 0 0 0 57.856 63.68l6.144 0.32h554.688a64 64 0 0 0 63.68-57.856l0.32-6.144V405.312a64 64 0 0 0-64-64z m-448 128c23.552 0 42.688 19.136 42.688 42.688v85.312a42.688 42.688 0 1 1-85.376 0V512c0-23.552 19.136-42.688 42.688-42.688z m341.312 0c23.616 0 42.688 19.136 42.688 42.688v85.312a42.688 42.688 0 1 1-85.312 0V512c0-23.552 19.072-42.688 42.624-42.688z" fill="currentColor" p-id="9918"></path></svg>