<?xml version="1.0" standalone="no"?><!DOCTYPE svg PUBLIC "-//W3C//DTD SVG 1.1//EN" "http://www.w3.org/Graphics/SVG/1.1/DTD/svg11.dtd"><svg t="1750651392473" class="icon" viewBox="0 0 1024 1024" version="1.1" xmlns="http://www.w3.org/2000/svg" p-id="8563" xmlns:xlink="http://www.w3.org/1999/xlink" width="180" height="180" fill="currentColor" stroke-width="2"><path d="M826.9 958.3H199.1C126.8 958.3 68 899.5 68 827.1v-406C68 348.8 126.8 290 199.1 290h627.7c72.3 0 131.1 58.8 131.1 131.1v406c0.1 72.4-58.7 131.2-131 131.2zM199.1 350c-39.2 0-71.1 31.9-71.1 71.1v406c0 39.2 31.9 71.1 71.1 71.1h627.7c39.2 0 71.1-31.9 71.1-71.1v-406c0-39.2-31.9-71.1-71.1-71.1H199.1z" p-id="8564"></path><path d="M448.1 350c-8.4 0-16.8-3.5-22.7-10.4l-192-221.8c-10.8-12.5-9.5-31.5 3-42.3 12.5-10.8 31.5-9.5 42.3 3l192 221.8c10.8 12.5 9.5 31.5-3 42.3-5.7 5-12.6 7.4-19.6 7.4zM576.1 350c-6.9 0-13.9-2.4-19.5-7.2-12.6-10.8-14-29.7-3.2-42.3l192-224c10.8-12.6 29.7-14 42.3-3.2 12.6 10.8 14 29.7 3.2 42.3l-192 224c-5.9 6.8-14.3 10.4-22.8 10.4zM353 665.7c-16.6 0-30-13.4-30-30V512.2c0-16.6 13.4-30 30-30s30 13.4 30 30v123.4c0 16.6-13.5 30.1-30 30.1zM673 665.7c-16.6 0-30-13.4-30-30V512.2c0-16.6 13.4-30 30-30s30 13.4 30 30v123.4c0 16.6-13.4 30.1-30 30.1z" p-id="8565"></path></svg>