<?xml version="1.0" standalone="no"?><!DOCTYPE svg PUBLIC "-//W3C//DTD SVG 1.1//EN" "http://www.w3.org/Graphics/SVG/1.1/DTD/svg11.dtd"><svg t="1750673694686" class="icon" viewBox="0 0 1024 1024" version="1.1" xmlns="http://www.w3.org/2000/svg" p-id="10910" xmlns:xlink="http://www.w3.org/1999/xlink" width="200" height="200" fill="currentColor"><path d="M331.264 128c-7.488 0-11.264 3.744-11.264 11.264v745.376c0 7.488 3.744 11.232 11.264 11.232h73.472c7.488 0 11.328-3.712 11.328-11.232v-154.752l57.888-55.136 167.616 213.248c4.544 5.28 9.792 8 15.872 8h101.504c5.312 0 8.32-1.536 9.056-4.576l-2.112-11.488-221.12-274.816 212.032-205.184c3.936-4.096 2.56-15.936-8.064-15.936h-104.96c-5.344 0-10.656 2.752-15.968 8.064L416 607.2V139.264c0-7.52-3.744-11.264-11.264-11.264h-73.472z" p-id="10911"></path></svg>